<svg id="visual" viewBox="0 0 1600 720" width="1600" height="720" xmlns="http://www.w3.org/2000/svg" xmlns:xlink="http://www.w3.org/1999/xlink" version="1.1"><rect x="0" y="0" width="1600" height="720" fill="#001220"></rect><defs><linearGradient id="grad1_0" x1="55%" y1="0%" x2="100%" y2="100%"><stop offset="5.555555555555554%" stop-color="#fbae3c" stop-opacity="1"></stop><stop offset="94.44444444444446%" stop-color="#fbae3c" stop-opacity="1"></stop></linearGradient></defs><defs><linearGradient id="grad1_1" x1="55%" y1="0%" x2="100%" y2="100%"><stop offset="5.555555555555554%" stop-color="#fbae3c" stop-opacity="1"></stop><stop offset="94.44444444444446%" stop-color="#f48350" stop-opacity="1"></stop></linearGradient></defs><defs><linearGradient id="grad1_2" x1="55%" y1="0%" x2="100%" y2="100%"><stop offset="5.555555555555554%" stop-color="#d96162" stop-opacity="1"></stop><stop offset="94.44444444444446%" stop-color="#f48350" stop-opacity="1"></stop></linearGradient></defs><defs><linearGradient id="grad1_3" x1="55%" y1="0%" x2="100%" y2="100%"><stop offset="5.555555555555554%" stop-color="#d96162" stop-opacity="1"></stop><stop offset="94.44444444444446%" stop-color="#af4b6d" stop-opacity="1"></stop></linearGradient></defs><defs><linearGradient id="grad1_4" x1="55%" y1="0%" x2="100%" y2="100%"><stop offset="5.555555555555554%" stop-color="#7c3e6b" stop-opacity="1"></stop><stop offset="94.44444444444446%" stop-color="#af4b6d" stop-opacity="1"></stop></linearGradient></defs><defs><linearGradient id="grad1_5" x1="55%" y1="0%" x2="100%" y2="100%"><stop offset="5.555555555555554%" stop-color="#7c3e6b" stop-opacity="1"></stop><stop offset="94.44444444444446%" stop-color="#49335c" stop-opacity="1"></stop></linearGradient></defs><defs><linearGradient id="grad1_6" x1="55%" y1="0%" x2="100%" y2="100%"><stop offset="5.555555555555554%" stop-color="#1d2540" stop-opacity="1"></stop><stop offset="94.44444444444446%" stop-color="#49335c" stop-opacity="1"></stop></linearGradient></defs><defs><linearGradient id="grad1_7" x1="55%" y1="0%" x2="100%" y2="100%"><stop offset="5.555555555555554%" stop-color="#1d2540" stop-opacity="1"></stop><stop offset="94.44444444444446%" stop-color="#001220" stop-opacity="1"></stop></linearGradient></defs><defs><linearGradient id="grad2_0" x1="0%" y1="0%" x2="45%" y2="100%"><stop offset="5.555555555555554%" stop-color="#fbae3c" stop-opacity="1"></stop><stop offset="94.44444444444446%" stop-color="#fbae3c" stop-opacity="1"></stop></linearGradient></defs><defs><linearGradient id="grad2_1" x1="0%" y1="0%" x2="45%" y2="100%"><stop offset="5.555555555555554%" stop-color="#f48350" stop-opacity="1"></stop><stop offset="94.44444444444446%" stop-color="#fbae3c" stop-opacity="1"></stop></linearGradient></defs><defs><linearGradient id="grad2_2" x1="0%" y1="0%" x2="45%" y2="100%"><stop offset="5.555555555555554%" stop-color="#f48350" stop-opacity="1"></stop><stop offset="94.44444444444446%" stop-color="#d96162" stop-opacity="1"></stop></linearGradient></defs><defs><linearGradient id="grad2_3" x1="0%" y1="0%" x2="45%" y2="100%"><stop offset="5.555555555555554%" stop-color="#af4b6d" stop-opacity="1"></stop><stop offset="94.44444444444446%" stop-color="#d96162" stop-opacity="1"></stop></linearGradient></defs><defs><linearGradient id="grad2_4" x1="0%" y1="0%" x2="45%" y2="100%"><stop offset="5.555555555555554%" stop-color="#af4b6d" stop-opacity="1"></stop><stop offset="94.44444444444446%" stop-color="#7c3e6b" stop-opacity="1"></stop></linearGradient></defs><defs><linearGradient id="grad2_5" x1="0%" y1="0%" x2="45%" y2="100%"><stop offset="5.555555555555554%" stop-color="#49335c" stop-opacity="1"></stop><stop offset="94.44444444444446%" stop-color="#7c3e6b" stop-opacity="1"></stop></linearGradient></defs><defs><linearGradient id="grad2_6" x1="0%" y1="0%" x2="45%" y2="100%"><stop offset="5.555555555555554%" stop-color="#49335c" stop-opacity="1"></stop><stop offset="94.44444444444446%" stop-color="#1d2540" stop-opacity="1"></stop></linearGradient></defs><defs><linearGradient id="grad2_7" x1="0%" y1="0%" x2="45%" y2="100%"><stop offset="5.555555555555554%" stop-color="#001220" stop-opacity="1"></stop><stop offset="94.44444444444446%" stop-color="#1d2540" stop-opacity="1"></stop></linearGradient></defs><g transform="translate(1600, 0)"><path d="M0 432C-45.3 400.7 -90.7 369.5 -146.6 353.8C-202.5 338.2 -268.9 338.1 -305.5 305.5C-342.1 272.8 -348.8 207.5 -364.9 151.2C-381 94.8 -406.5 47.4 -432 0L0 0Z" fill="#0c1c30"></path><path d="M0 378C-39.7 350.7 -79.3 323.3 -128.2 309.6C-177.1 295.9 -235.3 295.9 -267.3 267.3C-299.3 238.7 -305.2 181.6 -319.3 132.3C-333.4 83 -355.7 41.5 -378 0L0 0Z" fill="#312c4f"></path><path d="M0 324C-34 300.6 -68 277.1 -109.9 265.4C-151.8 253.6 -201.7 253.6 -229.1 229.1C-256.5 204.6 -261.6 155.6 -273.7 113.4C-285.8 71.1 -304.9 35.6 -324 0L0 0Z" fill="#623965"></path><path d="M0 270C-28.3 250.5 -56.7 230.9 -91.6 221.2C-126.5 211.4 -168 211.3 -190.9 190.9C-213.8 170.5 -218 129.7 -228.1 94.5C-238.2 59.3 -254.1 29.6 -270 0L0 0Z" fill="#96446e"></path><path d="M0 216C-22.7 200.4 -45.3 184.7 -73.3 176.9C-101.2 169.1 -134.4 169.1 -152.7 152.7C-171 136.4 -174.4 103.8 -182.5 75.6C-190.5 47.4 -203.3 23.7 -216 0L0 0Z" fill="#c55469"></path><path d="M0 162C-17 150.3 -34 138.6 -55 132.7C-75.9 126.8 -100.8 126.8 -114.6 114.6C-128.3 102.3 -130.8 77.8 -136.8 56.7C-142.9 35.6 -152.4 17.8 -162 0L0 0Z" fill="#e9705a"></path><path d="M0 108C-11.3 100.2 -22.7 92.4 -36.6 88.5C-50.6 84.5 -67.2 84.5 -76.4 76.4C-85.5 68.2 -87.2 51.9 -91.2 37.8C-95.3 23.7 -101.6 11.9 -108 0L0 0Z" fill="#fa9845"></path><path d="M0 54C-5.7 50.1 -11.3 46.2 -18.3 44.2C-25.3 42.3 -33.6 42.3 -38.2 38.2C-42.8 34.1 -43.6 25.9 -45.6 18.9C-47.6 11.9 -50.8 5.9 -54 0L0 0Z" fill="#fbae3c"></path></g><g transform="translate(0, 720)"><path d="M0 -432C52.7 -419 105.4 -405.9 160.7 -388C216.1 -370.1 274 -347.4 305.5 -305.5C336.9 -263.6 341.8 -202.6 358.5 -148.5C375.1 -94.4 403.6 -47.2 432 0L0 0Z" fill="#0c1c30"></path><path d="M0 -378C46.1 -366.6 92.2 -355.2 140.6 -339.5C189.1 -323.9 239.8 -303.9 267.3 -267.3C294.8 -230.6 299.1 -177.3 313.7 -129.9C328.2 -82.6 353.1 -41.3 378 0L0 0Z" fill="#312c4f"></path><path d="M0 -324C39.5 -314.2 79 -304.4 120.5 -291C162 -277.6 205.5 -260.5 229.1 -229.1C252.7 -197.7 256.4 -151.9 268.8 -111.4C281.3 -70.8 302.7 -35.4 324 0L0 0Z" fill="#623965"></path><path d="M0 -270C32.9 -261.9 65.9 -253.7 100.5 -242.5C135 -231.3 171.3 -217.1 190.9 -190.9C210.6 -164.7 213.6 -126.6 224 -92.8C234.5 -59 252.2 -29.5 270 0L0 0Z" fill="#96446e"></path><path d="M0 -216C26.3 -209.5 52.7 -203 80.4 -194C108 -185.1 137 -173.7 152.7 -152.7C168.5 -131.8 170.9 -101.3 179.2 -74.2C187.6 -47.2 201.8 -23.6 216 0L0 0Z" fill="#c55469"></path><path d="M0 -162C19.8 -157.1 39.5 -152.2 60.3 -145.5C81 -138.8 102.8 -130.3 114.6 -114.6C126.3 -98.8 128.2 -76 134.4 -55.7C140.7 -35.4 151.3 -17.7 162 0L0 0Z" fill="#e9705a"></path><path d="M0 -108C13.2 -104.7 26.3 -101.5 40.2 -97C54 -92.5 68.5 -86.8 76.4 -76.4C84.2 -65.9 85.5 -50.6 89.6 -37.1C93.8 -23.6 100.9 -11.8 108 0L0 0Z" fill="#fa9845"></path><path d="M0 -54C6.6 -52.4 13.2 -50.7 20.1 -48.5C27 -46.3 34.3 -43.4 38.2 -38.2C42.1 -32.9 42.7 -25.3 44.8 -18.6C46.9 -11.8 50.4 -5.9 54 0L0 0Z" fill="#fbae3c"></path></g></svg>